<svg xmlns="http://www.w3.org/2000/svg" viewBox="0 0 1200 800" role="img" aria-label="Science laboratory at Adonai">
  <defs>
    <linearGradient id="bg" x1="0" y1="0" x2="1" y2="1">
      <stop offset="0" stop-color="#0F4C81"/>
      <stop offset="1" stop-color="#0A2F56"/>
    </linearGradient>
    <radialGradient id="glow" cx="0.8" cy="0.15" r="0.7">
      <stop offset="0" stop-color="#D4AF37" stop-opacity="0.35"/>
      <stop offset="1" stop-color="#D4AF37" stop-opacity="0"/>
    </radialGradient>
    <pattern id="dots" width="40" height="40" patternUnits="userSpaceOnUse">
      <circle cx="2" cy="2" r="1.5" fill="#ffffff" opacity="0.05"/>
    </pattern>
  </defs>
  <rect width="1200" height="800" fill="url(#bg)"/>
  <rect width="1200" height="800" fill="url(#dots)"/>
  <rect width="1200" height="800" fill="url(#glow)"/>
  <g fill="none" stroke="#D4AF37" stroke-width="11" stroke-linecap="round" stroke-linejoin="round">
    <path d="M565,250 L565,360 L470,500 Q460,520 484,520 L716,520 Q740,520 730,500 L635,360 L635,250 Z" fill="#0A2F56"/>
    <path d="M540,250 L660,250"/>
    <path d="M498,470 Q600,448 702,470 L724,506 Q734,520 712,520 L488,520 Q466,520 476,506 Z" fill="#D4AF37" fill-opacity="0.18" stroke="none"/>
    <circle cx="582" cy="472" r="9" fill="#D4AF37" fill-opacity="0.6" stroke="none"/>
    <circle cx="638" cy="458" r="7" fill="#D4AF37" fill-opacity="0.6" stroke="none"/>
    <circle cx="612" cy="492" r="6" fill="#D4AF37" fill-opacity="0.6" stroke="none"/>
  </g>
  <text x="600" y="640" text-anchor="middle" font-family="'Poppins',ui-sans-serif,system-ui,sans-serif" font-size="34" font-weight="700" letter-spacing="3" fill="#D4AF37">SCIENCE</text>
  <text x="600" y="682" text-anchor="middle" font-family="ui-sans-serif,system-ui,sans-serif" font-size="20" letter-spacing="2" fill="#ffffff" opacity="0.6">STEM LABORATORY</text>
</svg>
