<svg xmlns="http://www.w3.org/2000/svg" viewBox="0 0 1200 800" role="img" aria-label="Sports day at Adonai">
  <defs>
    <linearGradient id="bg" x1="0" y1="0" x2="1" y2="1">
      <stop offset="0" stop-color="#0F4C81"/>
      <stop offset="1" stop-color="#0A2F56"/>
    </linearGradient>
    <radialGradient id="glow" cx="0.8" cy="0.15" r="0.7">
      <stop offset="0" stop-color="#D4AF37" stop-opacity="0.35"/>
      <stop offset="1" stop-color="#D4AF37" stop-opacity="0"/>
    </radialGradient>
    <pattern id="dots" width="40" height="40" patternUnits="userSpaceOnUse">
      <circle cx="2" cy="2" r="1.5" fill="#ffffff" opacity="0.05"/>
    </pattern>
  </defs>
  <rect width="1200" height="800" fill="url(#bg)"/>
  <rect width="1200" height="800" fill="url(#dots)"/>
  <rect width="1200" height="800" fill="url(#glow)"/>
  <g fill="none" stroke="#D4AF37" stroke-width="11" stroke-linecap="round" stroke-linejoin="round">
    <path d="M510,255 L690,255 L678,360 Q660,430 600,430 Q540,430 522,360 Z" fill="#0A2F56"/>
    <path d="M516,280 Q452,288 452,332 Q452,372 514,366"/>
    <path d="M684,280 Q748,288 748,332 Q748,372 686,366"/>
    <path d="M600,430 L600,470"/>
    <rect x="535" y="470" width="130" height="30" rx="6" fill="#0A2F56"/>
    <path d="M600,300 l13,26 29,4 -21,20 5,29 -26,-13 -26,13 5,-29 -21,-20 29,-4 z" fill="#D4AF37" stroke="none"/>
  </g>
  <text x="600" y="640" text-anchor="middle" font-family="'Poppins',ui-sans-serif,system-ui,sans-serif" font-size="34" font-weight="700" letter-spacing="3" fill="#D4AF37">SPORTS</text>
  <text x="600" y="682" text-anchor="middle" font-family="ui-sans-serif,system-ui,sans-serif" font-size="20" letter-spacing="2" fill="#ffffff" opacity="0.6">INTER-HOUSE GAMES</text>
</svg>
